<svg xmlns="http://www.w3.org/2000/svg" viewBox="0 0 256 256" width="256" height="256">
  <g stroke="#3A2E2A" stroke-width="4" stroke-linejoin="round" stroke-linecap="round">
    <!-- Тело -->
    <ellipse cx="128" cy="200" rx="48" ry="44" fill="#E8E0D4"/>
    <ellipse cx="128" cy="208" rx="22" ry="16" fill="#F7F3EA"/>
    <!-- Лапки -->
    <ellipse cx="104" cy="230" rx="12" ry="10" fill="#E8E0D4"/>
    <ellipse cx="152" cy="230" rx="12" ry="10" fill="#E8E0D4"/>
    <!-- Хвост pom-pom -->
    <circle cx="176" cy="194" r="12" fill="#E8E0D4"/>
    <!-- Уши длинные -->
    <path d="M86 70 Q66 130 84 168 Q104 150 98 80 Z" fill="#E8E0D4"/>
    <path d="M170 70 Q190 130 172 168 Q152 150 158 80 Z" fill="#E8E0D4"/>
    <path d="M88 78 Q76 120 86 150 Q96 132 96 84 Z" fill="#F7B5C8" opacity="0.7"/>
    <path d="M168 78 Q180 120 170 150 Q160 132 160 84 Z" fill="#F7B5C8" opacity="0.7"/>
    <!-- Голова -->
    <ellipse cx="128" cy="96" rx="50" ry="48" fill="#E8E0D4"/>
    <!-- Морда -->
    <ellipse cx="128" cy="110" rx="26" ry="20" fill="#F7F3EA"/>
    <!-- Глаза -->
    <circle cx="110" cy="92" r="6.5" fill="#3A2E2A" stroke="none"/>
    <circle cx="146" cy="92" r="6.5" fill="#3A2E2A" stroke="none"/>
    <circle cx="112" cy="90" r="2.2" fill="#fff" stroke="none"/>
    <circle cx="148" cy="90" r="2.2" fill="#fff" stroke="none"/>
    <!-- Нос -->
    <path d="M122 106 L134 106 L128 114 Z" fill="#F7A8C0"/>
    <!-- Рот -->
    <path d="M128 114 L128 120 Q120 124 116 120 M128 120 Q136 124 140 120" fill="none"/>
    <!-- Зубки -->
    <rect x="124" y="120" width="8" height="6" fill="#fff" stroke-width="2"/>
  </g>
</svg>
